STARTFONT 2.1
COMMENT    All rights reversed
FONT atari-7x7
SIZE 10 72 72
FONTBOUNDINGBOX 7 7 0 -1
STARTPROPERTIES 11
FOUNDRY "Fine"
FAMILY_NAME ""
WEIGHT_NAME "Medium"
SLANT "R"
SETWIDTH_NAME "Normal"
SPACING "c"
CHARSET_REGISTRY "ISO-8859"
CHARSET_ENCODING "1"
COPYRIGHT "Public domain font"
FONT_ASCENT  6
FONT_DESCENT 1
ENDPROPERTIES
CHARS 128
STARTCHAR C000
ENCODING 0
SWIDTH 700 0
DWIDTH 7 0
BBX 0 0 0 0
BITMAP
ENDCHAR
STARTCHAR C001
ENCODING 1
SWIDTH 700 0
DWIDTH 7 0
BBX 6 5 0 1
BITMAP
30
78
fc
78
30
ENDCHAR
STARTCHAR C002
ENCODING 2
SWIDTH 700 0
DWIDTH 7 0
BBX 7 7 0 -1
BITMAP
aa
54
aa
54
aa
54
aa
ENDCHAR
STARTCHAR C003
ENCODING 3
SWIDTH 700 0
DWIDTH 7 0
BBX 6 6 0 0
BITMAP
a0
e0
a0
1c
08
08
ENDCHAR
STARTCHAR C004
ENCODING 4
SWIDTH 700 0
DWIDTH 7 0
BBX 5 7 0 -1
BITMAP
e0
80
c0
b8
20
30
20
ENDCHAR
STARTCHAR C005
ENCODING 5
SWIDTH 700 0
DWIDTH 7 0
BBX 5 7 0 -1
BITMAP
60
80
80
70
28
30
28
ENDCHAR
STARTCHAR C006
ENCODING 6
SWIDTH 700 0
DWIDTH 7 0
BBX 6 7 0 -1
BITMAP
80
80
e0
1c
10
18
10
ENDCHAR
STARTCHAR C007
ENCODING 7
SWIDTH 700 0
DWIDTH 7 0
BBX 4 4 0 2
BITMAP
60
90
90
60
ENDCHAR
STARTCHAR C010
ENCODING 8
SWIDTH 700 0
DWIDTH 7 0
BBX 5 7 0 -1
BITMAP
20
20
f8
20
20
00
f8
ENDCHAR
STARTCHAR C011
ENCODING 9
SWIDTH 700 0
DWIDTH 7 0
BBX 5 7 0 -1
BITMAP
90
d0
b0
90
20
20
38
ENDCHAR
STARTCHAR C012
ENCODING 10
SWIDTH 700 0
DWIDTH 7 0
BBX 6 7 0 -1
BITMAP
a0
a0
a0
4c
04
04
04
ENDCHAR
STARTCHAR C013
ENCODING 11
SWIDTH 700 0
DWIDTH 7 0
BBX 4 6 0 0
BITMAP
50
50
50
d0
10
f0
ENDCHAR
STARTCHAR C014
ENCODING 12
SWIDTH 700 0
DWIDTH 7 0
BBX 4 4 0 -1
BITMAP
f0
10
d0
50
ENDCHAR
STARTCHAR C015
ENCODING 13
SWIDTH 700 0
DWIDTH 7 0
BBX 6 4 1 -1
BITMAP
fc
80
bc
a0
ENDCHAR
STARTCHAR C016
ENCODING 14
SWIDTH 700 0
DWIDTH 7 0
BBX 6 6 1 0
BITMAP
a0
a0
a0
bc
80
fc
ENDCHAR
STARTCHAR C017
ENCODING 15
SWIDTH 700 0
DWIDTH 7 0
BBX 7 7 0 -1
BITMAP
28
28
28
ee
00
ee
28
ENDCHAR
STARTCHAR C020
ENCODING 16
SWIDTH 700 0
DWIDTH 7 0
BBX 7 3 0 3
BITMAP
fe
00
fe
ENDCHAR
STARTCHAR C021
ENCODING 17
SWIDTH 700 0
DWIDTH 7 0
BBX 7 3 0 2
BITMAP
fe
00
fe
ENDCHAR
STARTCHAR C022
ENCODING 18
SWIDTH 700 0
DWIDTH 7 0
BBX 7 3 0 0
BITMAP
fe
00
fe
ENDCHAR
STARTCHAR C023
ENCODING 19
SWIDTH 700 0
DWIDTH 7 0
BBX 7 3 0 -1
BITMAP
fe
00
fe
ENDCHAR
STARTCHAR C024
ENCODING 20
SWIDTH 700 0
DWIDTH 7 0
BBX 7 3 0 -1
BITMAP
fe
00
fe
ENDCHAR
STARTCHAR C025
ENCODING 21
SWIDTH 700 0
DWIDTH 7 0
BBX 6 7 1 -1
BITMAP
a0
a0
a0
bc
80
bc
a0
ENDCHAR
STARTCHAR C026
ENCODING 22
SWIDTH 700 0
DWIDTH 7 0
BBX 4 7 0 -1
BITMAP
50
50
50
d0
10
d0
50
ENDCHAR
STARTCHAR C027
ENCODING 23
SWIDTH 700 0
DWIDTH 7 0
BBX 7 5 0 1
BITMAP
28
28
ee
00
fe
ENDCHAR
STARTCHAR C030
ENCODING 24
SWIDTH 700 0
DWIDTH 7 0
BBX 7 5 0 -1
BITMAP
fe
00
ee
28
28
ENDCHAR
STARTCHAR C031
ENCODING 25
SWIDTH 700 0
DWIDTH 7 0
BBX 3 7 1 -1
BITMAP
a0
a0
a0
a0
a0
a0
a0
ENDCHAR
STARTCHAR C032
ENCODING 26
SWIDTH 700 0
DWIDTH 7 0
BBX 3 7 1 -1
BITMAP
20
40
80
40
20
00
e0
ENDCHAR
STARTCHAR C033
ENCODING 27
SWIDTH 700 0
DWIDTH 7 0
BBX 3 7 1 -1
BITMAP
80
40
20
40
80
00
e0
ENDCHAR
STARTCHAR C034
ENCODING 28
SWIDTH 700 0
DWIDTH 7 0
BBX 6 5 0 0
BITMAP
f8
50
50
54
48
ENDCHAR
STARTCHAR C035
ENCODING 29
SWIDTH 700 0
DWIDTH 7 0
BBX 5 5 0 0
BITMAP
10
f8
20
f8
40
ENDCHAR
STARTCHAR C036
ENCODING 30
SWIDTH 700 0
DWIDTH 7 0
BBX 5 6 0 0
BITMAP
30
48
e0
40
48
b0
ENDCHAR
STARTCHAR C037
ENCODING 31
SWIDTH 700 0
DWIDTH 7 0
BBX 2 2 2 2
BITMAP
c0
c0
ENDCHAR
STARTCHAR C040
ENCODING 32
SWIDTH 700 0
DWIDTH 7 0
BBX 0 0 0 0
BITMAP
ENDCHAR
STARTCHAR C041
ENCODING 33
SWIDTH 700 0
DWIDTH 7 0
BBX 3 6 1 0
BITMAP
40
e0
e0
40
00
40
ENDCHAR
STARTCHAR C042
ENCODING 34
SWIDTH 700 0
DWIDTH 7 0
BBX 5 4 1 2
BITMAP
d8
d8
48
90
ENDCHAR
STARTCHAR C043
ENCODING 35
SWIDTH 700 0
DWIDTH 7 0
BBX 6 6 0 0
BITMAP
28
7c
28
50
f8
50
ENDCHAR
STARTCHAR C044
ENCODING 36
SWIDTH 700 0
DWIDTH 7 0
BBX 5 7 0 -1
BITMAP
20
78
c0
70
18
f0
20
ENDCHAR
STARTCHAR C045
ENCODING 37
SWIDTH 700 0
DWIDTH 7 0
BBX 5 6 0 0
BITMAP
c8
d8
30
60
d8
98
ENDCHAR
STARTCHAR C046
ENCODING 38
SWIDTH 700 0
DWIDTH 7 0
BBX 6 6 0 0
BITMAP
70
c0
6c
f8
d8
6c
ENDCHAR
STARTCHAR C047
ENCODING 39
SWIDTH 700 0
DWIDTH 7 0
BBX 2 4 2 2
BITMAP
c0
c0
40
80
ENDCHAR
STARTCHAR C050
ENCODING 40
SWIDTH 700 0
DWIDTH 7 0
BBX 3 6 1 0
BITMAP
60
c0
c0
c0
c0
60
ENDCHAR
STARTCHAR C051
ENCODING 41
SWIDTH 700 0
DWIDTH 7 0
BBX 3 6 1 0
BITMAP
c0
60
60
60
60
c0
ENDCHAR
STARTCHAR C052
ENCODING 42
SWIDTH 700 0
DWIDTH 7 0
BBX 4 5 0 1
BITMAP
90
60
f0
60
90
ENDCHAR
STARTCHAR C053
ENCODING 43
SWIDTH 700 0
DWIDTH 7 0
BBX 6 5 0 0
BITMAP
30
30
fc
30
30
ENDCHAR
STARTCHAR C054
ENCODING 44
SWIDTH 700 0
DWIDTH 7 0
BBX 2 4 2 -1
BITMAP
c0
c0
40
80
ENDCHAR
STARTCHAR C055
ENCODING 45
SWIDTH 700 0
DWIDTH 7 0
BBX 5 1 0 2
BITMAP
f8
ENDCHAR
STARTCHAR C056
ENCODING 46
SWIDTH 700 0
DWIDTH 7 0
BBX 2 2 2 0
BITMAP
c0
c0
ENDCHAR
STARTCHAR C057
ENCODING 47
SWIDTH 700 0
DWIDTH 7 0
BBX 5 6 0 0
BITMAP
08
18
30
60
c0
80
ENDCHAR
STARTCHAR C060
ENCODING 48
SWIDTH 700 0
DWIDTH 7 0
BBX 5 6 0 0
BITMAP
70
d8
f8
f8
d8
70
ENDCHAR
STARTCHAR C061
ENCODING 49
SWIDTH 700 0
DWIDTH 7 0
BBX 4 6 1 0
BITMAP
60
e0
60
60
60
f0
ENDCHAR
STARTCHAR C062
ENCODING 50
SWIDTH 700 0
DWIDTH 7 0
BBX 5 6 0 0
BITMAP
70
d8
18
30
60
f8
ENDCHAR
STARTCHAR C063
ENCODING 51
SWIDTH 700 0
DWIDTH 7 0
BBX 6 6 0 0
BITMAP
78
cc
18
0c
cc
78
ENDCHAR
STARTCHAR C064
ENCODING 52
SWIDTH 700 0
DWIDTH 7 0
BBX 6 6 0 0
BITMAP
38
78
d8
fc
18
18
ENDCHAR
STARTCHAR C065
ENCODING 53
SWIDTH 700 0
DWIDTH 7 0
BBX 5 6 0 0
BITMAP
f8
c0
f0
18
d8
70
ENDCHAR
STARTCHAR C066
ENCODING 54
SWIDTH 700 0
DWIDTH 7 0
BBX 5 6 0 0
BITMAP
70
d8
c0
f0
d8
70
ENDCHAR
STARTCHAR C067
ENCODING 55
SWIDTH 700 0
DWIDTH 7 0
BBX 5 6 0 0
BITMAP
f8
18
30
60
60
60
ENDCHAR
STARTCHAR C070
ENCODING 56
SWIDTH 700 0
DWIDTH 7 0
BBX 5 6 0 0
BITMAP
70
d8
70
d8
d8
70
ENDCHAR
STARTCHAR C071
ENCODING 57
SWIDTH 700 0
DWIDTH 7 0
BBX 5 6 0 0
BITMAP
70
d8
d8
78
18
70
ENDCHAR
STARTCHAR C072
ENCODING 58
SWIDTH 700 0
DWIDTH 7 0
BBX 2 5 2 0
BITMAP
c0
c0
00
c0
c0
ENDCHAR
STARTCHAR C073
ENCODING 59
SWIDTH 700 0
DWIDTH 7 0
BBX 3 6 1 -1
BITMAP
60
60
00
60
60
c0
ENDCHAR
STARTCHAR C074
ENCODING 60
SWIDTH 700 0
DWIDTH 7 0
BBX 4 6 1 0
BITMAP
30
60
c0
c0
60
30
ENDCHAR
STARTCHAR C075
ENCODING 61
SWIDTH 700 0
DWIDTH 7 0
BBX 5 3 0 1
BITMAP
f8
00
f8
ENDCHAR
STARTCHAR C076
ENCODING 62
SWIDTH 700 0
DWIDTH 7 0
BBX 4 6 1 0
BITMAP
c0
60
30
30
60
c0
ENDCHAR
STARTCHAR C077
ENCODING 63
SWIDTH 700 0
DWIDTH 7 0
BBX 6 6 0 0
BITMAP
78
cc
18
30
00
30
ENDCHAR
STARTCHAR C100
ENCODING 64
SWIDTH 700 0
DWIDTH 7 0
BBX 6 6 0 0
BITMAP
78
dc
ec
d8
c0
78
ENDCHAR
STARTCHAR C101
ENCODING 65
SWIDTH 700 0
DWIDTH 7 0
BBX 5 6 0 0
BITMAP
70
d8
d8
f8
d8
d8
ENDCHAR
STARTCHAR C102
ENCODING 66
SWIDTH 700 0
DWIDTH 7 0
BBX 5 6 0 0
BITMAP
f0
d8
f0
d8
d8
f0
ENDCHAR
STARTCHAR C103
ENCODING 67
SWIDTH 700 0
DWIDTH 7 0
BBX 5 6 0 0
BITMAP
70
d8
c0
c0
d8
70
ENDCHAR
STARTCHAR C104
ENCODING 68
SWIDTH 700 0
DWIDTH 7 0
BBX 5 6 0 0
BITMAP
f0
d8
d8
d8
d8
f0
ENDCHAR
STARTCHAR C105
ENCODING 69
SWIDTH 700 0
DWIDTH 7 0
BBX 5 6 0 0
BITMAP
f8
c0
f0
c0
c0
f8
ENDCHAR
STARTCHAR C106
ENCODING 70
SWIDTH 700 0
DWIDTH 7 0
BBX 5 6 0 0
BITMAP
f8
c0
f0
c0
c0
c0
ENDCHAR
STARTCHAR C107
ENCODING 71
SWIDTH 700 0
DWIDTH 7 0
BBX 5 6 0 0
BITMAP
78
c0
c0
d8
d8
78
ENDCHAR
STARTCHAR C110
ENCODING 72
SWIDTH 700 0
DWIDTH 7 0
BBX 5 6 0 0
BITMAP
d8
d8
f8
d8
d8
d8
ENDCHAR
STARTCHAR C111
ENCODING 73
SWIDTH 700 0
DWIDTH 7 0
BBX 6 6 0 0
BITMAP
fc
30
30
30
30
fc
ENDCHAR
STARTCHAR C112
ENCODING 74
SWIDTH 700 0
DWIDTH 7 0
BBX 5 6 0 0
BITMAP
f8
18
18
18
d8
70
ENDCHAR
STARTCHAR C113
ENCODING 75
SWIDTH 700 0
DWIDTH 7 0
BBX 6 6 0 0
BITMAP
cc
d8
f0
f0
d8
cc
ENDCHAR
STARTCHAR C114
ENCODING 76
SWIDTH 700 0
DWIDTH 7 0
BBX 5 6 0 0
BITMAP
c0
c0
c0
c0
c0
f8
ENDCHAR
STARTCHAR C115
ENCODING 77
SWIDTH 700 0
DWIDTH 7 0
BBX 6 6 0 0
BITMAP
cc
fc
cc
cc
cc
cc
ENDCHAR
STARTCHAR C116
ENCODING 78
SWIDTH 700 0
DWIDTH 7 0
BBX 6 6 0 0
BITMAP
cc
ec
fc
fc
dc
cc
ENDCHAR
STARTCHAR C117
ENCODING 79
SWIDTH 700 0
DWIDTH 7 0
BBX 5 6 0 0
BITMAP
70
d8
d8
d8
d8
70
ENDCHAR
STARTCHAR C120
ENCODING 80
SWIDTH 700 0
DWIDTH 7 0
BBX 5 6 0 0
BITMAP
f0
d8
d8
f0
c0
c0
ENDCHAR
STARTCHAR C121
ENCODING 81
SWIDTH 700 0
DWIDTH 7 0
BBX 5 7 0 -1
BITMAP
70
d8
d8
d8
d8
70
18
ENDCHAR
STARTCHAR C122
ENCODING 82
SWIDTH 700 0
DWIDTH 7 0
BBX 5 6 0 0
BITMAP
f0
d8
d8
f0
f0
d8
ENDCHAR
STARTCHAR C123
ENCODING 83
SWIDTH 700 0
DWIDTH 7 0
BBX 5 6 0 0
BITMAP
78
c0
70
18
d8
70
ENDCHAR
STARTCHAR C124
ENCODING 84
SWIDTH 700 0
DWIDTH 7 0
BBX 6 6 0 0
BITMAP
fc
30
30
30
30
30
ENDCHAR
STARTCHAR C125
ENCODING 85
SWIDTH 700 0
DWIDTH 7 0
BBX 5 6 0 0
BITMAP
d8
d8
d8
d8
d8
70
ENDCHAR
STARTCHAR C126
ENCODING 86
SWIDTH 700 0
DWIDTH 7 0
BBX 5 6 0 0
BITMAP
d8
d8
d8
d8
70
20
ENDCHAR
STARTCHAR C127
ENCODING 87
SWIDTH 700 0
DWIDTH 7 0
BBX 6 6 0 0
BITMAP
cc
cc
cc
cc
fc
cc
ENDCHAR
STARTCHAR C130
ENCODING 88
SWIDTH 700 0
DWIDTH 7 0
BBX 5 6 0 0
BITMAP
d8
d8
70
70
d8
d8
ENDCHAR
STARTCHAR C131
ENCODING 89
SWIDTH 700 0
DWIDTH 7 0
BBX 6 6 0 0
BITMAP
cc
cc
78
30
30
30
ENDCHAR
STARTCHAR C132
ENCODING 90
SWIDTH 700 0
DWIDTH 7 0
BBX 6 6 0 0
BITMAP
fc
0c
18
30
60
fc
ENDCHAR
STARTCHAR C133
ENCODING 91
SWIDTH 700 0
DWIDTH 7 0
BBX 4 6 1 0
BITMAP
f0
c0
c0
c0
c0
f0
ENDCHAR
STARTCHAR C134
ENCODING 92
SWIDTH 700 0
DWIDTH 7 0
BBX 5 6 0 0
BITMAP
80
c0
60
30
18
08
ENDCHAR
STARTCHAR C135
ENCODING 93
SWIDTH 700 0
DWIDTH 7 0
BBX 4 6 1 0
BITMAP
f0
30
30
30
30
f0
ENDCHAR
STARTCHAR C136
ENCODING 94
SWIDTH 700 0
DWIDTH 7 0
BBX 5 4 0 2
BITMAP
20
70
d8
88
ENDCHAR
STARTCHAR C137
ENCODING 95
SWIDTH 700 0
DWIDTH 7 0
BBX 5 1 0 0
BITMAP
f8
ENDCHAR
STARTCHAR C140
ENCODING 96
SWIDTH 700 0
DWIDTH 7 0
BBX 2 4 1 2
BITMAP
c0
c0
80
40
ENDCHAR
STARTCHAR C141
ENCODING 97
SWIDTH 700 0
DWIDTH 7 0
BBX 5 5 0 0
BITMAP
70
18
78
d8
78
ENDCHAR
STARTCHAR C142
ENCODING 98
SWIDTH 700 0
DWIDTH 7 0
BBX 5 6 0 0
BITMAP
c0
f0
d8
d8
d8
f0
ENDCHAR
STARTCHAR C143
ENCODING 99
SWIDTH 700 0
DWIDTH 7 0
BBX 5 5 0 0
BITMAP
70
d8
c0
d8
70
ENDCHAR
STARTCHAR C144
ENCODING 100
SWIDTH 700 0
DWIDTH 7 0
BBX 5 6 0 0
BITMAP
18
78
d8
d8
d8
78
ENDCHAR
STARTCHAR C145
ENCODING 101
SWIDTH 700 0
DWIDTH 7 0
BBX 5 5 0 0
BITMAP
70
d8
f8
c0
78
ENDCHAR
STARTCHAR C146
ENCODING 102
SWIDTH 700 0
DWIDTH 7 0
BBX 5 6 0 0
BITMAP
38
60
f0
60
60
60
ENDCHAR
STARTCHAR C147
ENCODING 103
SWIDTH 700 0
DWIDTH 7 0
BBX 5 6 0 -1
BITMAP
78
d8
d8
78
18
f0
ENDCHAR
STARTCHAR C150
ENCODING 104
SWIDTH 700 0
DWIDTH 7 0
BBX 5 6 0 0
BITMAP
c0
f0
d8
d8
d8
d8
ENDCHAR
STARTCHAR C151
ENCODING 105
SWIDTH 700 0
DWIDTH 7 0
BBX 4 6 1 0
BITMAP
60
00
e0
60
60
f0
ENDCHAR
STARTCHAR C152
ENCODING 106
SWIDTH 700 0
DWIDTH 7 0
BBX 4 7 1 -1
BITMAP
30
00
f0
30
30
30
e0
ENDCHAR
STARTCHAR C153
ENCODING 107
SWIDTH 700 0
DWIDTH 7 0
BBX 6 6 0 0
BITMAP
c0
cc
d8
f0
d8
cc
ENDCHAR
STARTCHAR C154
ENCODING 108
SWIDTH 700 0
DWIDTH 7 0
BBX 4 6 1 0
BITMAP
e0
60
60
60
60
f0
ENDCHAR
STARTCHAR C155
ENCODING 109
SWIDTH 700 0
DWIDTH 7 0
BBX 5 5 0 0
BITMAP
d0
f8
f8
d8
d8
ENDCHAR
STARTCHAR C156
ENCODING 110
SWIDTH 700 0
DWIDTH 7 0
BBX 5 5 0 0
BITMAP
f0
d8
d8
d8
d8
ENDCHAR
STARTCHAR C157
ENCODING 111
SWIDTH 700 0
DWIDTH 7 0
BBX 5 5 0 0
BITMAP
70
d8
d8
d8
70
ENDCHAR
STARTCHAR C160
ENCODING 112
SWIDTH 700 0
DWIDTH 7 0
BBX 5 6 0 -1
BITMAP
f0
d8
d8
f0
c0
c0
ENDCHAR
STARTCHAR C161
ENCODING 113
SWIDTH 700 0
DWIDTH 7 0
BBX 5 6 0 -1
BITMAP
78
d8
d8
78
18
18
ENDCHAR
STARTCHAR C162
ENCODING 114
SWIDTH 700 0
DWIDTH 7 0
BBX 5 5 0 0
BITMAP
f0
d8
c0
c0
c0
ENDCHAR
STARTCHAR C163
ENCODING 115
SWIDTH 700 0
DWIDTH 7 0
BBX 5 5 0 0
BITMAP
78
c0
70
18
f0
ENDCHAR
STARTCHAR C164
ENCODING 116
SWIDTH 700 0
DWIDTH 7 0
BBX 5 6 0 0
BITMAP
60
f8
60
60
60
38
ENDCHAR
STARTCHAR C165
ENCODING 117
SWIDTH 700 0
DWIDTH 7 0
BBX 5 5 0 0
BITMAP
d8
d8
d8
d8
78
ENDCHAR
STARTCHAR C166
ENCODING 118
SWIDTH 700 0
DWIDTH 7 0
BBX 5 5 0 0
BITMAP
d8
d8
d8
70
20
ENDCHAR
STARTCHAR C167
ENCODING 119
SWIDTH 700 0
DWIDTH 7 0
BBX 5 5 0 0
BITMAP
d8
d8
d8
f8
d8
ENDCHAR
STARTCHAR C170
ENCODING 120
SWIDTH 700 0
DWIDTH 7 0
BBX 5 5 0 0
BITMAP
d8
d8
70
d8
d8
ENDCHAR
STARTCHAR C171
ENCODING 121
SWIDTH 700 0
DWIDTH 7 0
BBX 5 6 0 -1
BITMAP
d8
d8
d8
78
18
70
ENDCHAR
STARTCHAR C172
ENCODING 122
SWIDTH 700 0
DWIDTH 7 0
BBX 6 5 0 0
BITMAP
fc
18
30
60
fc
ENDCHAR
STARTCHAR C173
ENCODING 123
SWIDTH 700 0
DWIDTH 7 0
BBX 5 7 1 -1
BITMAP
38
60
60
c0
60
60
38
ENDCHAR
STARTCHAR C174
ENCODING 124
SWIDTH 700 0
DWIDTH 7 0
BBX 2 6 2 0
BITMAP
c0
c0
c0
c0
c0
c0
ENDCHAR
STARTCHAR C175
ENCODING 125
SWIDTH 700 0
DWIDTH 7 0
BBX 5 7 1 -1
BITMAP
e0
30
30
18
30
30
e0
ENDCHAR
STARTCHAR C176
ENCODING 126
SWIDTH 700 0
DWIDTH 7 0
BBX 6 3 0 2
BITMAP
64
fc
98
ENDCHAR
STARTCHAR C177
ENCODING 127
SWIDTH 700 0
DWIDTH 7 0
BBX 7 7 0 -1
BITMAP
fe
fe
fe
fe
fe
fe
fe
ENDCHAR
ENDFONT
